<?xml version="1.0" encoding="utf-8"?>
<!-- Generator: Adobe Illustrator 21.0.0, SVG Export Plug-In . SVG Version: 6.00 Build 0)  -->
<svg version="1.0" xmlns="http://www.w3.org/2000/svg" xmlns:xlink="http://www.w3.org/1999/xlink" x="0px" y="0px"
	 viewBox="0 0 200 100" style="enable-background:new 0 0 200 100;" xml:space="preserve">
<style type="text/css">
	.st0{fill:none;}
</style>
<g id="Layer_1">
	
		<image style="overflow:visible;" width="3554" height="1537" xlink:href="site/images/bitwa.jpg"  transform="matrix(1 0 0 1 -1677 -719)">
	</image>
</g>
<g id="Layer_2">
	<path id="Jagiello" class="st0" d="M84.1,158.6c0,4.5-19.5,72-19.5,72l19.5,51l6,142.5l21,40.5l51-52.5v-94.5l61.5-115.5l37.5-30
		l39-72.1l27-89.9l36-33l60-43.5l7.5-90l-21-121.5l-31.5-52.5l-57,49.5l-25.5,132l-21-15l-10.5-58.5l-67.5-30l-25.5,94.5l-22.5,28.5
		l-108-70.5l-3-36l76.5-202.5l-18-30l-129,273L106.6-55.9l42,55.9l-16.5,73.1L84.1,158.6z"/>
	<polygon id="swStanislaw" class="st0" points="-284,-584.7 -262,-648.7 -232,-677.3 -192,-648 -169.3,-609.3 -146,-572.7 
		-151.3,-508 -170,-446 -201.3,-414.7 -238.7,-438 -273.3,-450.7 -300.7,-517.3 	"/>
	<polygon id="Ulrich" class="st0" points="-746,81 -777,59 -790,30 -826,24 -849,-43 -827,-87 -782,-77 -735,-57 -727,-108 
		-682,-123 -626,-134 -604,-84 -604,-28 -540,0 -504,33 -506,68 -415,98 -401,137 -478,247 -499,352 -557,422 -713,330 -802,278 
		-748,194 -709,135 	"/>
	<polygon id="_x35_" class="st0" points="-890,120 -930,196 -902,282 -880,360 -810,332 -756,228 -760,164 -820,128 -834,84 
		-872,66 	"/>
	<g id="_x34_">
		<path class="st0" d="M-960.7,186c2,0,37.3-32,37.3-32l22-24.7l8-32l-8-28.7L-936,56l-48,20l-10.7,47.3L-960.7,186z"/>
	</g>
	<g id="_x33_">
		<path class="st0" d="M-1078.7-38.7l-16.7-64l-26-21.3l-62.7-91.3l-17.3-6c0,0-10-22-10-24s-32-1.3-32-1.3l-14.7,27.3l12,13.3
			l-76,28l-11.3,47.3l30.7,48.7l39.3,68.7l22,49.3l-7.3,70.7l29.3,10.7l64.7-46l38-31.3L-1078.7-38.7z"/>
	</g>
	<g id="_x31_">
		<polygon class="st0" points="-1430.7,41.3 -1408,49.5 -1370,33.3 -1339.3,12 -1302,-32.7 -1292.7,-80.7 -1314.7,-118 
			-1338.7,-156 -1397.3,-164.7 -1425.3,-112.7 -1465.3,-59.3 -1455.3,4.7 		"/>
	</g>
	<g id="_x32_">
		<path class="st0" d="M-1532.7,343.3l32.7-26.7l40.7-64.7l34.7-54.7l9.3-54.7L-1372,94l47.3,4l27.3,44l6,32l42-6.7l61.3-37.3
			l36.7-44l28.7,21.3l-6.7,38.7l-47.3,50l-47.3,63.3l-64.7-11.3l-70,62.7l-38.7-8l-40,38l-63.3,35.3l-46,25.3c0,0-32-25.3-32.7-27.3
			c-0.7-2-11.3-29.3-11.3-29.3l32.7-27.3L-1532.7,343.3z"/>
	</g>
	<g id="_x37_">
		<polygon class="st0" points="-1168.7,803.3 -1130.7,792 -1104,748 -1051.3,742.7 -998.7,751.3 -956,753.3 -948,717.3 
			-1000.7,683.3 -1060,649.3 -1092.7,636.7 -1121.3,659.3 -1155.3,666.7 -1210,686.7 -1254,745.3 -1245.3,788 		"/>
	</g>
	<g id="_x38_">
		<path class="st0" d="M-1161.3,572.7l22,42l58,4.7c0,0,88,42,90.7,42.7c2.7,0.7,59.3,25.3,59.3,25.3l37.3,29.3l6-22.7l-40.7-64.7
			l26.7-20l-20-54l-19.3-28.7l-80-34l-43.3,4.7l-24.7,24.7l-38.7,0.7l-37.3,16L-1161.3,572.7z"/>
	</g>
	<g id="_x31_2">
		<polygon class="st0" points="-480.7,169.3 -458,151.3 -440.7,124 -394.7,130.7 -377.3,135.3 -387.3,190 -337.3,240 -256.7,374 
			-280,386 -323.3,349.3 -307.3,412.7 -257.3,560 -245.3,648.7 -285.3,618 -377.3,458.7 -403.3,478.7 -391.3,562.7 -424.7,596.7 
			-444,584.7 -450.7,534 -485.3,456 -472,400.7 -501.3,276 -531.3,205.3 -527.3,169.3 		"/>
	</g>
	<g id="_x39_">
		<polygon class="st0" points="-412.7,-67.3 -398.7,-92 -380.7,-134 -342,-139.3 -314.7,-98 -293.3,-51.3 -334.7,-11.3 -405.3,2 
			-429.3,-41.3 		"/>
	</g>
	<g id="_x31_0">
		<path class="st0" d="M-222.7-39.3l33.3-33.3l3.3-36.7c0,0-25.3-20-24.7-22c0.7-2-4.7-44-4.7-44L-238-198l-67.3,22.7L-316-126
			l27.3,57.3L-222.7-39.3z"/>
	</g>
	<g id="_x31_4">
		<polygon class="st0" points="461.3,-85.3 432,-97.3 410,-128.7 446,-161.3 443.3,-207.3 493.3,-180 528.7,-159.3 541.3,-132.7 
			566.7,-138.7 589.3,-80.7 585.3,-39.3 533.3,-44 		"/>
	</g>
	<g id="_x31_5">
		<path class="st0" d="M601.3,361.3c0-2,18-58.7,18-58.7l8.7-53.3L599.3,222v-47.3l44-44.7l23.3-31.3l27.3,40l38,21.3l10-48l46,11.3
			l-5.3,61.3l25.3,40l18.7,41.3l-22,12.7l-34.7,50l10,52.7l-50,22l-67.3-9.3L601.3,361.3z"/>
	</g>
	<g id="_x31_6">
		<polygon class="st0" points="853.3,-98.7 856,-132 897.3,-133.3 914.7,-96 918.7,-62 986,-54.7 981.3,-2.7 982,44.7 962.7,88.7 
			902,117.3 828,79.3 790.7,40 750,5.3 774,-48 815.3,-78 856,-83.3 		"/>
	</g>
	<g id="_x31_7">
		<path class="st0" d="M929.3-78C932-78,986-58,986-58l26.7,4.7L1002-96.7l-6.7-37.3l-42.7-24.7l-36,4.7v54L929.3-78z"/>
	</g>
	<g id="_x31_8">
		<polygon class="st0" points="948,474.7 941.3,437.3 901.3,400 896,366 940,380 977.3,388 1011.3,364 1030,346 1081.3,366 
			1124.7,408.7 1116,480 1124.7,525.3 1162.7,548.7 1160.7,576.7 1146,608 1105.3,632 1006,646 856,628 870,594 906,562.7 
			912,521.3 932.7,493.3 		"/>
	</g>
	<g id="_x31_9">
		<polygon class="st0" points="1226,194 1194.7,201.3 1174.7,166.7 1176,119.3 1194,88.7 1234.7,69.3 1250,87.3 1271.3,98 
			1305.3,70.7 1346,101.3 1373.3,128 1374.7,152.7 1317.3,176 1258.7,185.3 		"/>
	</g>
	<g id="_x32_0">
		<path class="st0" d="M1256,432c1.3-2.7,22-31.3,22-31.3l62-22l20.7-36.7l32,1.3l34,54.7l57.3,32.7l17.3,35.3
			c0,0,6.7,64.7,4.7,64.7s-14.7,30-14.7,30l-126-55.3l-72.7-16L1256,432z"/>
		<path class="st0" d="M1257.3,429.3"/>
	</g>
	<g id="_x32_1">
		<path class="st0" d="M1342,280l37.3-52.7l64.7-32.7l18-36l40.7,2.7l23.3,31.3l1.3,39.3l37.3,17.3c0,0,32,30.7,35.3,32.7
			s49.3,35.3,49.3,35.3l24,36l-22,11.3l-84.7,8.7l-92-2.7l-32-8.7l-31.3-15.3L1408,286l-49.3,32l-34.7-22.7L1342,280z"/>
	</g>
	<g id="_x32_3">
		<path class="st0" d="M1502.7-97.3c2-0.7,53.3-14.7,53.3-14.7l42-22.7l11.3-34l38.7-16l38.7,16l-6.7,61.3l48.7,65.3l-20,103.3
			l-89.3,14l-92-31.3l29.3-61.3l-41.3-23.3l-62.7-26L1502.7-97.3z"/>
	</g>
	<g id="_x32_4">
		<path class="st0" d="M1698-124.7l54.7,34l78.7-52.7l21.3-45.3l-11.3-32.7l-96.7-47.3c0,0-73.3,37.3-75.3,36.7
			S1698-124.7,1698-124.7z"/>
	</g>
	<g id="_x32_2">
		<polygon class="st0" points="1465.3,-372 1497.3,-397.3 1512,-432 1539.3,-425.3 1532.7,-398.7 1566,-366 1566,-304.7 1550,-264 
			1501.3,-282 1491.3,-322 		"/>
	</g>
</g>
</svg>
